<?xml version="1.0" standalone="no"?> <!DOCTYPE svg PUBLIC "-//W3C//DTD SVG 20010904//EN" "http://www.w3.org/TR/2001/REC-SVG-20010904/DTD/svg10.dtd"> <svg version="1.0" xmlns="http://www.w3.org/2000/svg" width="500.000000pt" height="500.000000pt" viewBox="0 0 500.000000 500.000000" preserveAspectRatio="xMidYMid meet"> <g transform="translate(0.000000,500.000000) scale(0.100000,-0.100000)" fill="#059669" stroke="none"> <path d="M2230 4545 c-1387 -192 -2189 -1673 -1586 -2930 493 -1027 1734 -1463 2750 -966 1268 621 1561 2262 587 3284 -438 460 -1122 698 -1751 612z m465 -426 c1100 -132 1752 -1317 1276 -2315 -387 -811 -1353 -1158 -2156 -775 -693 330 -1063 1071 -905 1811 175 821 953 1379 1785 1279z"/> <path d="M2345 4034 c-142 -19 -221 -37 -355 -80 -25 -8 -99 -41 -165 -73 -833 -407 -1118 -1464 -602 -2231 429 -637 1224 -861 1927 -542 378 171 688 524 818 933 92 287 92 639 2 919 -175 539 -613 934 -1165 1051 -86 19 -384 34 -460 23z m320 -54 c1079 -120 1672 -1335 1101 -2257 -617 -998 -2083 -924 -2601 132 -512 1042 343 2253 1500 2125z"/> <path d="M2278 3926 c-1042 -184 -1549 -1337 -976 -2216 519 -795 1676 -867 2291 -144 668 787 320 2000 -663 2309 -186 59 -479 81 -652 51z m447 -57 c505 -76 957 -471 1099 -962 70 -240 77 -526 18 -749 -130 -495 -520 -880 -1019 -1005 -141 -35 -462 -41 -598 -10 -799 181 -1272 960 -1054 1737 63 226 185 429 363 605 246 244 515 366 881 399 58 5 229 -3 310 -15z"/> <path d="M1642 2998 l3 -253 126 -3 126 -3 11 28 c6 15 18 49 28 76 l17 47 119 0 119 0 -7 68 -6 69 121 107 c66 60 121 110 121 112 0 2 -176 4 -390 4 l-390 0 2 -252z"/> <path d="M2510 3178 c-41 -38 -105 -97 -143 -131 l-67 -60 2 -716 3 -716 198 -3 c154 -2 197 0 198 10 0 7 0 309 -1 671 l-1 657 177 -2 178 -3 25 -72 25 -73 128 0 128 0 0 255 0 255 -387 0 -388 -1 -75 -71z"/> </g> </svg>